<?xml version="1.0" standalone="no"?>
<!DOCTYPE svg PUBLIC "-//W3C//DTD SVG 20010904//EN"
 "http://www.w3.org/TR/2001/REC-SVG-20010904/DTD/svg10.dtd">
<svg version="1.0" xmlns="http://www.w3.org/2000/svg"
 width="423.000000pt" height="115.000000pt" viewBox="0 0 423.000000 115.000000"
 preserveAspectRatio="xMidYMid meet">

<g transform="translate(0.000000,115.000000) scale(0.100000,-0.100000)"
fill="#000000" stroke="none">
<path d="M2572 1109 c-81 -40 -157 -161 -175 -281 l-11 -70 -90 -77 c-228
-194 -695 -551 -722 -551 -4 0 31 39 77 87 47 49 108 117 136 153 72 92 204
295 259 398 73 136 101 177 141 205 22 16 31 27 22 27 -9 0 -52 -32 -95 -70
-141 -125 -279 -205 -343 -198 -42 5 -37 34 12 87 124 132 111 230 -30 237
l-58 3 53 -8 c101 -17 105 -42 21 -142 -87 -104 -96 -133 -53 -176 23 -22 31
-25 71 -19 26 3 80 24 121 46 53 29 71 35 61 22 -8 -11 -43 -59 -79 -106 -36
-47 -119 -171 -185 -275 -150 -235 -215 -323 -261 -351 -43 -27 -38 -38 8 -14
107 55 668 444 847 587 l103 83 37 -38 c40 -40 77 -54 116 -44 37 9 31 26 -7
20 -39 -6 -93 24 -110 61 -10 23 -5 30 75 109 107 106 158 179 165 242 4 38 1
50 -13 61 -26 18 -43 17 -93 -8z m86 -32 c2 -16 -6 -40 -19 -60 -28 -40 -200
-217 -211 -217 -15 0 -8 69 12 121 27 74 68 128 120 161 57 36 94 34 98 -5z"/>
<path d="M4155 1086 c-46 -20 -160 -109 -292 -228 -156 -141 -502 -493 -628
-640 -55 -64 -101 -115 -103 -113 -6 6 68 131 231 395 170 273 301 469 357
533 23 26 36 47 29 47 -25 0 -159 -122 -328 -300 -543 -573 -718 -715 -877
-715 -47 0 -67 5 -83 19 -29 27 -28 55 2 49 27 -5 52 19 43 42 -6 17 -39 20
-67 5 -14 -8 -19 -21 -19 -50 0 -73 78 -105 188 -77 158 42 331 184 668 552
329 360 427 455 254 250 -234 -279 -425 -600 -437 -735 -9 -93 -1 -88 162 100
169 194 608 624 785 770 70 56 46 27 -110 -135 -245 -256 -429 -486 -507 -633
-60 -111 -56 -165 12 -178 45 -8 163 28 205 62 41 35 32 41 -15 10 -50 -34
-136 -61 -169 -52 -46 11 -32 44 91 222 277 401 458 632 585 748 73 67 77 76
23 52z"/>
<path d="M1602 1019 c-34 -17 -62 -35 -62 -40 0 -14 5 -12 52 20 24 15 57 33
73 39 17 6 23 11 14 11 -9 1 -44 -13 -77 -30z"/>
<path d="M1303 1026 c-166 -42 -305 -169 -510 -465 l-106 -154 -63 6 c-163 15
-251 120 -215 257 22 84 85 141 185 167 l51 13 -52 -4 c-112 -10 -217 -106
-238 -217 -22 -117 88 -218 256 -236 33 -3 58 -9 57 -14 -2 -4 -32 -44 -67
-89 -84 -106 -158 -173 -185 -167 -12 3 -59 15 -105 27 -94 25 -176 24 -228
-4 -43 -22 -50 -46 -19 -72 47 -41 199 -43 317 -3 l56 18 119 -25 c131 -28
273 -35 340 -16 44 13 124 66 124 82 0 5 -21 -4 -46 -20 -25 -16 -68 -34 -95
-39 -89 -19 -262 -10 -372 20 l-39 10 59 41 c72 50 128 103 200 190 30 38 63
68 73 68 32 0 154 41 237 81 319 152 554 429 448 529 -31 29 -106 35 -182 16z
m141 -27 c36 -28 34 -70 -6 -150 -58 -117 -217 -253 -404 -347 -82 -41 -221
-89 -231 -79 -3 3 13 32 35 64 22 32 79 118 127 191 47 73 114 161 148 196
122 124 264 178 331 125z m-1123 -880 c38 -7 69 -15 69 -19 0 -13 -85 -32
-165 -37 -83 -5 -155 10 -163 35 -10 31 129 42 259 21z"/>
<path d="M1175 158 c-62 -33 -57 -118 6 -118 26 0 79 53 79 79 0 42 -44 62
-85 39z"/>
<path d="M2183 160 c-50 -20 -58 -98 -10 -114 22 -8 32 -6 55 11 39 29 51 67
27 93 -19 21 -37 24 -72 10z"/>
</g>
</svg>
